# xmcd
#
# Track frame offsets:
#	200
#	24650
#	51657
#	76777
#
# Disc length: 1349 seconds
#
# Revision: 0
# Processed by: cddbd v1.5PL3 Copyright (c) Steve Scherf et al.
# Submitted via: dBpowerAMP V4.0
#
DISCID=2b054304
DTITLE=Main - Firmament
DYEAR=1993
DGENRE=Electronic
TTITLE0=I
TTITLE1=II
TTITLE2=III
TTITLE3=IV
EXTD=
EXTT0=
EXTT1=
EXTT2=
EXTT3=
PLAYORDER=
